<?xml version="1.0" encoding="utf-8"?>
<!-- Generator: Adobe Illustrator 24.2.1, SVG Export Plug-In . SVG Version: 6.00 Build 0)  -->
<svg version="1.1" id="Layer_1" xmlns="http://www.w3.org/2000/svg" xmlns:xlink="http://www.w3.org/1999/xlink" x="0px" y="0px"
	 viewBox="0 0 689.18 763.32" style="enable-background:new 0 0 689.18 763.32;" xml:space="preserve">
<style type="text/css">
	.st0{clip-path:url(#SVGID_2_);fill:#2A2B2A;}
	.st1{clip-path:url(#SVGID_2_);fill:#F0C54D;}
</style>
<g>
	<defs>
		<rect id="SVGID_1_" x="-103.04" y="-132.66" width="846.55" height="1040.85"/>
	</defs>
	<clipPath id="SVGID_2_">
		<use xlink:href="#SVGID_1_"  style="overflow:visible;"/>
	</clipPath>
	<path class="st0" d="M2.63,573.15c0-4.39,1.53-8.13,4.61-11.19c3.07-3.08,6.8-4.61,11.19-4.61h47.64c10.83,0,21.04,2.05,30.63,6.14
		c9.58,4.1,17.92,9.7,25.02,16.79c7.1,7.11,12.74,15.41,16.91,24.92c4.17,9.51,6.25,19.69,6.25,30.51c0,10.83-2.05,20.97-6.14,30.41
		c-4.11,9.44-9.7,17.69-16.8,24.8c-7.1,7.1-15.4,12.7-24.92,16.8c-9.52,4.09-19.69,6.14-30.52,6.14H18.43
		c-4.39,0-8.13-1.53-11.19-4.61c-3.07-3.08-4.61-6.8-4.61-11.19V573.15z M34.23,687.97h27.88c7.17,0,13.94-1.39,20.32-4.18
		c6.36-2.77,11.89-6.51,16.56-11.2c4.68-4.68,8.42-10.21,11.21-16.57c2.78-6.37,4.16-13.13,4.16-20.31c0-7.17-1.38-13.94-4.16-20.3
		c-2.79-6.36-6.52-11.89-11.21-16.57c-4.68-4.69-10.2-8.42-16.56-11.2c-6.38-2.78-13.15-4.18-20.32-4.18H34.23V687.97z"/>
	<path class="st0" d="M185.04,586.33c-4.68,0-8.59-1.58-11.73-4.73c-3.15-3.14-4.73-7.05-4.73-11.75c0-4.52,1.58-8.38,4.73-11.52
		c3.14-3.14,7.06-4.72,11.73-4.72c4.55,0,8.39,1.58,11.53,4.72c3.15,3.14,4.72,6.99,4.72,11.52c0,4.7-1.57,8.6-4.72,11.75
		C193.43,584.75,189.59,586.33,185.04,586.33 M185.04,717.6c-4.24,0-7.79-1.44-10.64-4.28c-2.86-2.86-4.28-6.4-4.28-10.64v-88.47
		c0-4.25,1.42-7.79,4.28-10.64c2.86-2.86,6.4-4.28,10.64-4.28c4.11,0,7.58,1.42,10.44,4.28c2.85,2.85,4.27,6.4,4.27,10.64v88.47
		c0,4.24-1.42,7.79-4.27,10.64C192.62,716.17,189.15,717.6,185.04,717.6"/>
	<path class="st0" d="M242.35,599.28c3.51,0,6.58,1.16,9.22,3.5c2.62,2.35,4.17,5.2,4.61,8.56l0.66,9.88
		c3.8-6.58,8.92-11.89,15.36-15.91c6.44-4.02,13.46-6.03,21.08-6.03c5.41,0,10.49,1.05,15.25,3.17c4.75,2.14,8.9,5.02,12.41,8.67
		c3.5,3.66,6.27,7.97,8.33,12.96c2.05,4.98,3.08,10.25,3.08,15.81v63.66c0,3.8-1.39,7.1-4.18,9.87c-2.78,2.78-6.07,4.18-9.87,4.18
		s-7.1-1.39-9.88-4.18c-2.78-2.78-4.17-6.07-4.17-9.87v-57.52c0-7.47-1.72-13.07-5.16-16.8c-3.45-3.73-8.39-5.59-14.82-5.59
		c-7.03,0-12.88,2.01-17.56,6.04c-4.68,4.02-7.45,9.1-8.34,15.25v57.74c0,4.25-1.42,7.79-4.29,10.65
		c-2.84,2.84-6.31,4.28-10.42,4.28c-4.24,0-7.79-1.44-10.64-4.28c-2.86-2.87-4.28-6.4-4.28-10.65v-89.78c0-3.8,1.32-7.03,3.96-9.66
		C235.32,600.59,238.55,599.28,242.35,599.28"/>
	<path class="st0" d="M354.96,653.28c0-7.45,1.21-14.49,3.62-21.07c2.41-6.6,5.73-12.3,9.99-17.13c4.24-4.82,9.14-8.67,14.7-11.51
		c5.56-2.86,11.56-4.28,18.01-4.28c7.02,0,13.58,1.68,19.65,5.04c6.08,3.36,11.23,7.9,15.47,13.61l0.22-6.37
		c0.15-3.5,1.58-6.43,4.28-8.78c2.71-2.34,5.81-3.5,9.33-3.5c3.8,0,7.02,1.3,9.66,3.95c2.64,2.63,3.96,5.86,3.96,9.65v91.98
		c0,9.08-1.42,16.99-4.28,23.71c-2.86,6.73-6.7,12.37-11.52,16.92c-4.84,4.52-10.47,7.92-16.92,10.21
		c-6.44,2.27-13.24,3.4-20.41,3.4c-6.15,0-11.71-0.74-16.69-2.21c-4.98-1.46-9.15-3.29-12.52-5.48c-2.93-1.9-4.94-3.8-6.03-5.7
		c-1.1-1.9-1.65-3.89-1.65-5.93c0-3.37,1.21-6.4,3.63-9.1c2.41-2.72,5.45-4.07,9.1-4.07c2.93,0,5.72,1.02,8.35,3.07
		c1.9,1.46,4.1,2.63,6.6,3.51c2.47,0.87,5.18,1.31,8.11,1.31c3.37,0,6.56-0.66,9.55-1.96c3-1.32,5.63-3.09,7.9-5.27
		c2.27-2.2,4.06-4.79,5.38-7.79c1.33-3,1.98-6.26,1.98-9.77v-18.22c-4.25,4.98-9.19,8.89-14.83,11.75
		c-5.62,2.84-11.75,4.28-18.33,4.28c-6.45,0-12.45-1.44-18.01-4.28c-5.57-2.86-10.46-6.73-14.7-11.64
		c-4.26-4.9-7.58-10.64-9.99-17.22C356.16,667.77,354.96,660.75,354.96,653.28 M383.5,654.37c0,4.69,0.66,9,1.96,12.96
		c1.33,3.96,3.15,7.36,5.49,10.21c2.34,2.86,5.05,5.13,8.13,6.81c3.07,1.69,6.36,2.53,9.88,2.53c3.52,0,6.81-0.84,9.88-2.53
		c3.08-1.68,5.79-3.95,8.13-6.81c2.34-2.85,4.16-6.25,5.48-10.21c1.33-3.96,1.98-8.26,1.98-12.96c0-4.53-0.66-8.77-1.98-12.73
		c-1.32-3.95-3.14-7.38-5.48-10.33c-2.35-2.91-5.05-5.18-8.13-6.8c-3.07-1.62-6.36-2.41-9.88-2.41c-3.52,0-6.81,0.79-9.88,2.41
		c-3.07,1.62-5.79,3.89-8.13,6.8c-2.34,2.94-4.16,6.38-5.49,10.33C384.16,645.6,383.5,649.84,383.5,654.37"/>
	<path class="st0" d="M566.37,684.02c3.22,0,6.08,1.19,8.57,3.61c2.48,2.42,3.73,5.31,3.73,8.67c0,1.76-0.49,3.6-1.44,5.48
		c-0.94,1.92-2.67,3.89-5.16,5.94c-3.66,2.93-8.22,5.31-13.73,7.13c-5.48,1.84-11.67,2.75-18.55,2.75c-8.04,0-15.4-1.39-22.05-4.17
		c-6.66-2.78-12.41-6.73-17.24-11.86c-4.82-5.11-8.59-11.26-11.3-18.44c-2.71-7.16-4.07-15.06-4.07-23.7
		c0-9.22,1.46-17.53,4.39-24.92c2.93-7.39,6.88-13.68,11.84-18.88c4.98-5.18,10.77-9.17,17.35-11.95
		c6.58-2.78,13.61-4.18,21.07-4.18c8.2,0,15.74,1.61,22.62,4.83c6.88,3.21,12.76,7.39,17.67,12.5c4.9,5.13,8.7,10.87,11.41,17.24
		c2.71,6.36,4.06,12.7,4.06,18.99s-1.24,10.86-3.72,13.72c-2.5,2.86-5.41,4.28-8.78,4.28H515c0.74,6.45,3.37,11.71,7.91,15.81
		c4.52,4.1,10.53,6.15,18,6.15c6.59,0,12.22-1.83,16.9-5.5C560.73,685.18,563.59,684.02,566.37,684.02 M567.03,652.4
		c0-4.09-0.72-7.87-2.19-11.3c-1.46-3.44-3.48-6.4-6.05-8.89c-2.56-2.49-5.49-4.48-8.76-5.94c-3.3-1.45-6.71-2.19-10.23-2.19
		c-3.65,0-7.05,0.74-10.21,2.19c-3.14,1.46-5.88,3.45-8.22,5.94c-2.35,2.49-4.22,5.45-5.61,8.89c-1.38,3.43-2.07,7.21-2.07,11.3
		H567.03z"/>
	<path class="st0" d="M649.14,619.03c1.17-1.76,2.63-3.8,4.38-6.15c1.77-2.34,3.7-4.5,5.84-6.47c2.11-1.98,4.39-3.66,6.79-5.05
		c2.42-1.38,4.94-2.08,7.58-2.08c3.37,0,6.43,1.24,9.22,3.72c2.78,2.49,4.18,5.72,4.18,9.67c0,3.37-1.12,6.22-3.3,8.55
		c-2.2,2.35-5.41,3.96-9.66,4.84c-2.64,0.58-5.34,1.61-8.12,3.07c-2.78,1.46-5.27,3.48-7.47,6.03c-2.2,2.57-4.03,5.68-5.5,9.33
		c-1.46,3.66-2.19,7.97-2.19,12.96v45.23c0,4.24-1.42,7.79-4.28,10.64c-2.86,2.85-6.34,4.28-10.42,4.28c-4.25,0-7.8-1.44-10.66-4.28
		c-2.85-2.86-4.27-6.4-4.27-10.64v-89.79c0-3.8,1.32-7.02,3.94-9.65c2.64-2.64,5.86-3.96,9.66-3.96c3.52,0,6.6,1.16,9.22,3.5
		c2.64,2.35,4.1,5.28,4.39,8.78L649.14,619.03z"/>
	<path class="st0" d="M475.99,752.68c0-5.86,4.12-9.49,9.68-9.49c5.62,0,9.65,3.64,9.65,9.49c0,5.77-4,9.39-9.65,9.39
		C480.09,762.07,475.99,758.45,475.99,752.68 M494.26,752.68c0-5.36-3.55-8.64-8.59-8.64c-4.93,0-8.61,3.23-8.61,8.64
		c0,5.35,3.66,8.53,8.61,8.53C490.69,761.21,494.26,758.03,494.26,752.68"/>
	<path class="st0" d="M499.66,743.35h1l12.24,17.17l0.06-0.03c-0.12-1.93-0.15-3.9-0.15-5.83v-11.31h1v18.55h-1l-12.25-17.2
		l-0.06,0.04c0.1,1.89,0.15,3.5,0.15,5.66v11.5h-1V743.35z"/>
	<polygon class="st0" points="519.24,743.35 531.74,743.35 531.74,744.17 520.24,744.17 520.24,752.46 530.16,752.46 530.16,753.26 
		520.24,753.26 520.24,761.08 532.22,761.08 532.22,761.9 519.24,761.9 	"/>
	<polygon class="st0" points="542.86,743.35 555.3,743.35 555.3,744.17 543.85,744.17 543.85,752.6 553.69,752.6 553.69,753.41 
		543.85,753.41 543.85,761.9 542.86,761.9 	"/>
	<path class="st0" d="M557.04,752.68c0-5.86,4.12-9.49,9.68-9.49c5.61,0,9.65,3.64,9.65,9.49c0,5.77-4.01,9.39-9.65,9.39
		C561.13,762.07,557.04,758.45,557.04,752.68 M575.3,752.68c0-5.36-3.54-8.64-8.58-8.64c-4.93,0-8.61,3.23-8.61,8.64
		c0,5.35,3.66,8.53,8.61,8.53C571.73,761.21,575.3,758.03,575.3,752.68"/>
	<path class="st0" d="M590.11,754.75l4.24,7.15h-1.1l-4.07-6.97c-0.32,0.06-0.65,0.08-0.99,0.08h-6.47v6.89h-1v-18.55h7.47
		c3.76,0,6.34,2.91,6.34,5.83C594.52,751.56,592.8,753.98,590.11,754.75 M593.5,749.18c0-2.71-2.08-5.01-5.49-5.01h-6.29v10.02h6.29
		C591.41,754.19,593.5,751.89,593.5,749.18"/>
	<path class="st0" d="M616.79,756.67h-10.55l-2.17,5.23h-1.04l7.88-18.66h1.24l7.84,18.66h-1.03L616.79,756.67z M616.44,755.86
		l-4.94-11.73h-0.03l-4.89,11.73H616.44z"/>
	<polygon class="st0" points="623.5,743.35 624.5,743.35 624.5,761.08 634.87,761.08 634.87,761.9 623.5,761.9 	"/>
	<polygon class="st0" points="637.89,743.35 638.89,743.35 638.89,761.08 649.27,761.08 649.27,761.9 637.89,761.9 	"/>
	<path class="st0" d="M651.26,761.34c0-0.4,0.32-0.71,0.74-0.71c0.43,0,0.76,0.32,0.76,0.71c0,0.43-0.33,0.72-0.76,0.72
		C651.58,762.06,651.26,761.77,651.26,761.34"/>
	<path class="st0" d="M192.57,2.99h92.07c53.34,0,104.75,18.32,154.26,54.94c7.65,5.85,18.42,15.9,32.31,30.19
		c45.08,51.52,67.62,107.98,67.62,169.36v8.15c0,65.21-25.66,125.19-76.97,179.93c-20.94,19.12-37.75,31.8-50.42,38.03
		c-6.85,4.64-19.02,10.77-36.53,18.42c-31,11.48-56.15,17.2-75.48,17.2h-112.9c-5.84,0-13.09-3.52-21.74-10.56
		c-9.26-9.06-13.88-19.73-13.88-32c0-16.9,8.35-29.89,25.06-38.94c6.03-2.62,12.57-3.92,19.62-3.92h85.13
		c45.48,0,84.72-15.5,117.74-46.5c13.68-14.29,23.45-26.36,29.28-36.22c16.7-28.57,25.06-56.85,25.06-84.84v-9.06
		c0-36.83-13.29-71.94-39.85-105.35c-35.22-41.65-80.91-62.49-137.06-62.49h-38.34v70.04c0,22.34-10.67,37.24-32,44.68
		c-4.24,0.81-7.85,1.21-10.87,1.21h-0.3c-17.72,0-31-8.54-39.85-25.66c-2.42-5.84-3.62-12.07-3.62-18.71V46.77
		c0-18.72,9.15-32.3,27.46-40.76C183.41,4,188.13,2.99,192.57,2.99"/>
	<path class="st1" d="M195.29,277.92h2.41c14.28,0,26.46,6.65,36.53,19.93c5.23,7.84,7.85,16.5,7.85,25.95
		c0,17.12-8.26,30.5-24.76,40.16c-7.65,3.43-14.49,5.13-20.53,5.13c-18.11,0-32.11-8.95-41.96-26.87
		c-2.62-6.84-3.93-13.18-3.93-19.03c0-16.9,8.15-30.27,24.45-40.14C182.41,279.65,189.04,277.92,195.29,277.92"/>
</g>
</svg>
